<?xml version="1.0" encoding="utf-8"?>
<!-- Generator: Adobe Illustrator 23.0.3, SVG Export Plug-In . SVG Version: 6.00 Build 0)  -->
<svg version="1.0" id="Layer_1" xmlns="http://www.w3.org/2000/svg" xmlns:xlink="http://www.w3.org/1999/xlink" x="0px" y="0px"
	 viewBox="0 0 100 100" style="enable-background:new 0 0 100 100;" xml:space="preserve">
<style type="text/css">
	.st0{fill:#25AE88;}
</style>
<path class="st0" d="M50,0.3C22.5,0.3,0.3,22.5,0.3,50S22.6,99.7,50,99.7c27.5,0,49.7-22.3,49.7-49.7C99.7,22.5,77.5,0.3,50,0.3z
	 M77.3,31.4L45.5,67.2c-0.4,0.4-0.9,0.7-1.5,0.7c-0.4,0-0.9-0.1-1.2-0.4L22.9,51.6c-0.9-0.7-1-1.9-0.3-2.8c0.7-0.9,1.9-1,2.8-0.3
	l18.4,14.7l30.6-34.4c0.7-0.8,2-0.9,2.8-0.2C78,29.4,78.1,30.6,77.3,31.4z"/>
</svg>
