<?xml version="1.0" encoding="utf-8"?>
<!-- Generator: Adobe Illustrator 23.0.3, SVG Export Plug-In . SVG Version: 6.00 Build 0)  -->
<svg version="1.0" id="Layer_1" xmlns="http://www.w3.org/2000/svg" xmlns:xlink="http://www.w3.org/1999/xlink" x="0px" y="0px"
	 viewBox="0 0 100 100" style="enable-background:new 0 0 100 100;" xml:space="preserve">
<style type="text/css">
	.st0{fill:#E5A124;}
</style>
<path class="st0" d="M50,0.2C22.5,0.2,0.2,22.5,0.2,50S22.5,99.8,50,99.8S99.8,77.5,99.8,50S77.5,0.2,50,0.2z M23.4,57.4
	c-4.1,0-7.4-3.3-7.4-7.4s3.3-7.4,7.4-7.4s7.4,3.3,7.4,7.4S27.5,57.4,23.4,57.4z M50.3,57.4c-4.1,0-7.4-3.3-7.4-7.4s3.3-7.4,7.4-7.4
	s7.4,3.3,7.4,7.4S54.4,57.4,50.3,57.4z M76.6,57.4c-4.1,0-7.4-3.3-7.4-7.4s3.3-7.4,7.4-7.4S84,45.9,84,50S80.7,57.4,76.6,57.4z"/>
</svg>
